<!-- Generator: Adobe Illustrator 22.1.0, SVG Export Plug-In  -->
<svg version="1.1"
	 xmlns="http://www.w3.org/2000/svg" xmlns:xlink="http://www.w3.org/1999/xlink" xmlns:a="http://ns.adobe.com/AdobeSVGViewerExtensions/3.0/"
	 x="0px" y="0px" width="167.7px" height="36.8px" viewBox="0 0 167.7 36.8" style="enable-background:new 0 0 167.7 36.8;"
	 xml:space="preserve">
<style type="text/css">
	.st0{fill:#EFB237;}
</style>
<defs>
</defs>
<g id="XMLID_1_">
	<path id="XMLID_48_" class="st0" d="M167.6,24c-26.9,0-53.7,0-80.7,0c0-0.4,0-0.7,0-1.2c0.2,0,0.4,0,0.5,0c4.2,0,8.4,0,12.5,0
		c22.3,0,44.6,0,67,0c0.2,0,0.4,0,0.6,0C167.6,23.2,167.6,23.6,167.6,24z"/>
	<path id="XMLID_47_" class="st0" d="M167.6,15c-0.1,0.5-0.1,0.9-0.2,1.4c0,0.5-0.1,0.9-0.1,1.4c-3.6,0-7.1,0-10.6,0
		c-0.1-0.4-0.1-0.4,0.2-0.5c0.1,0,0.1-0.1,0.2-0.1c0.3-0.1,0.4-0.3,0.4-0.6c0-0.7,0.1-1.4,0.1-2.1c0-2.4,0-4.9,0-7.3
		c0-0.2,0-0.5-0.1-0.7c0-0.3-0.2-0.4-0.5-0.5c-0.3,0-0.6-0.1-0.8-0.1c-0.1,0-0.3,0-0.4,0c0-0.2,0-0.4,0-0.6c3.7,0,7.4,0,11.2,0
		c-0.1,0.9-0.3,1.8-0.4,2.8c-0.2,0-0.4,0-0.6,0c0-0.4-0.1-0.9-0.1-1.3c0-0.3-0.1-0.4-0.4-0.4c-0.8-0.1-1.6-0.2-2.3-0.3
		c-1,0-2.1-0.1-3.2,0.1c0,0.1-0.1,0.3-0.1,0.5c0,1.1,0,2.2-0.1,3.2c0,0.3,0,0.7,0,1c0.2,0,0.3,0,0.5,0c0.9,0,1.9,0,2.8,0
		c0.3,0,0.6,0,1-0.1c0.3,0,0.4-0.1,0.4-0.4c0-0.2,0.1-0.4,0.1-0.7c0-0.4,0.1-0.5,0.5-0.4c0.1,0,0.1,0,0.2,0.1c0,1.3,0,2.6,0,4
		c-0.1,0-0.3,0-0.4,0c-0.2,0-0.3-0.1-0.3-0.3c0-0.3-0.1-0.5-0.1-0.8c-0.1-0.4-0.2-0.5-0.6-0.6c-0.4,0-0.8-0.1-1.2-0.1
		c-0.9,0-1.7,0-2.6,0c-0.3,0-0.3,0-0.3,0.3c0,1.5,0,3.1,0,4.6c0,0.1,0,0.1,0.1,0.3c0.2,0,0.3,0,0.5,0c1.5,0,2.9,0,4.4,0
		c0.4,0,0.8-0.1,1.3-0.2c0.2,0,0.4-0.2,0.4-0.4c0.1-0.4,0.3-0.8,0.4-1.2c0.1-0.4,0.1-0.5,0.6-0.4c0.1,0,0.1,0,0.2,0.1
		C167.6,14.8,167.6,14.9,167.6,15z"/>
	<path id="XMLID_46_" class="st0" d="M13.9,17.6c0.4-1.1,0.8-2.2,1.2-3.2c1.2-3,2.3-6.1,3.4-9.1c0.3-0.8,0.5-1.7,0.8-2.5
		c0-0.1,0-0.1,0.1-0.2c0.1-0.6-0.1-0.9-0.7-0.9c-0.5,0-0.9-0.1-1.4-0.1c-0.6,0-0.6,0-0.6-0.6c0-0.1,0-0.3,0-0.4
		c0-0.4,0.1-0.5,0.5-0.4c1.4,0,2.8,0.1,4.1,0.1c0.8,0,1.7,0,2.5-0.1c0.4,0,0.4,0.1,0.4,0.4c0,0.2,0,0.4,0,0.7c0,0.3,0,0.3-0.3,0.4
		c-0.3,0-0.6,0.1-0.8,0.1c-0.4,0.1-0.7,0.3-0.9,0.6c-0.3,0.5-0.5,1-0.8,1.5c-1.1,2.7-2.2,5.4-3.3,8.1c-1.4,3.6-2.8,7.1-4.2,10.7
		c-0.1,0.3-0.2,0.6-0.3,0.9c-0.8,0-1.6,0-2.5,0c-0.1-0.1-0.1-0.3-0.2-0.4C8.9,18.1,6.8,13,4.8,7.9C4.1,6.3,3.4,4.6,2.7,3
		C2.6,2.8,2.5,2.6,2.4,2.4C2.2,2,1.8,1.8,1.4,1.7c-0.3,0-0.6-0.1-1-0.1S0,1.5,0,1.1c0-0.2,0-0.4,0-0.6c0-0.3,0.1-0.4,0.4-0.4
		c0.7,0,1.4,0.1,2.1,0.1c1.8,0,3.7,0,5.5,0c0.6,0,1.2,0,1.9-0.1c0.4,0,0.5,0.1,0.5,0.5c0,0.2,0,0.4,0,0.6c0,0.4-0.1,0.4-0.4,0.4
		c-0.4,0-0.8,0.1-1.2,0.1c-0.2,0-0.3,0.1-0.5,0.1C7.9,1.9,7.7,2.2,7.8,2.7C7.9,3.1,8,3.5,8.2,3.8c1.1,2.8,2.2,5.7,3.3,8.5
		c0.7,1.7,1.3,3.4,2,5C13.8,17.3,13.9,17.4,13.9,17.6z"/>
	<path id="XMLID_45_" class="st0" d="M75.7,23.4c-0.8,0-1.6,0-2.5,0c-0.1-0.2-0.1-0.4-0.2-0.5c-2.4-6-4.8-12.1-7.3-18.1
		c-0.3-0.8-0.7-1.5-1-2.3c-0.3-0.6-0.7-0.9-1.4-0.9c-0.3,0-0.5,0-0.8-0.1c-0.3,0-0.4-0.1-0.4-0.4c0-0.2,0-0.4,0-0.7
		C62.1,0,62.2,0,62.6,0c1.7,0,3.4,0.1,5.2,0.1c1.4,0,2.8,0,4.3-0.1c0.5,0,0.5,0,0.5,0.5c0,0.1,0,0.3,0,0.4c0,0.6,0,0.6-0.6,0.6
		c-0.4,0-0.9,0.1-1.3,0.2c-0.6,0.1-0.8,0.4-0.6,1c0.2,0.6,0.4,1.1,0.6,1.7c1.6,4,3.1,8,4.7,12c0.1,0.4,0.3,0.8,0.5,1.2
		c0.1-0.1,0.1-0.2,0.2-0.3c1.5-4.1,3.1-8.1,4.6-12.2c0.3-0.7,0.5-1.5,0.7-2.2c0-0.1,0.1-0.2,0.1-0.3c0.1-0.7-0.1-1-0.8-1
		c-0.5,0-0.9-0.1-1.4-0.1c-0.3,0-0.4-0.1-0.4-0.4c0-0.2,0-0.5,0-0.7C78.9,0.1,79,0,79.3,0c0.6,0,1.2,0.1,1.8,0.1c1.4,0,2.8,0,4.1,0
		c0.3,0,0.5,0,0.8,0s0.4,0.1,0.4,0.4s0,0.5,0,0.8c0,0.2-0.1,0.3-0.3,0.4c-0.3,0-0.6,0.1-0.8,0.1c-0.4,0.1-0.7,0.3-1,0.7
		c-0.2,0.3-0.4,0.6-0.5,0.9c-1,2.3-1.9,4.6-2.8,6.9c-1.6,4.1-3.2,8.2-4.8,12.3C76,22.7,75.9,23.1,75.7,23.4z"/>
	<path id="XMLID_44_" class="st0" d="M151.3,16.7c0-0.2,0.1-0.4,0.1-0.6c0-0.6,0-1.2,0-1.9c0-0.5-0.1-0.7-0.7-0.7
		c-0.5,0-0.9-0.1-1.4-0.1c-0.2,0-0.3,0-0.5,0c0-0.2,0-0.4,0-0.5c0.5,0,0.9,0,1.3,0c1.1,0,2.3,0,3.4,0c0.1,0,0.3,0,0.4,0
		c0.1,0,0.2,0.1,0.2,0.1c0,0.1,0,0.3-0.1,0.4c-0.1,0.1-0.2,0.1-0.3,0.2c-0.3,0.1-0.4,0.3-0.5,0.6c-0.1,0.8-0.1,1.6,0,2.3
		c0,0.2,0,0.4,0,0.7c-0.4,0.1-0.9,0.3-1.3,0.4c-2,0.5-4,0.7-6,0.5c-1.8-0.1-3.4-0.6-4.9-1.6c-1.2-0.8-2.1-2-2.4-3.4
		c-0.5-2.6,0.4-5,2.8-6.5c1.2-0.7,2.4-1.2,3.8-1.4c2.5-0.4,5-0.2,7.4,0.4c0.2,0.1,0.4,0.1,0.5,0.2l0.1,0.1c-0.2,0.8-0.3,1.7-0.5,2.6
		c-0.2,0-0.4,0-0.7,0c0-0.4-0.1-0.8-0.1-1.1c0-0.4-0.2-0.5-0.5-0.7c-1-0.4-2-0.7-3.1-0.8c-1.2-0.1-2.4,0-3.6,0.3
		c-1.5,0.4-2.7,1.2-3.4,2.6c-1.4,2.7-0.3,6.1,2.4,7.6c1.5,0.8,3,1,4.7,0.9c0.6-0.1,1.3-0.2,1.9-0.3
		C150.9,16.9,151.1,16.8,151.3,16.7z"/>
	<path id="XMLID_37_" class="st0" d="M37.3,11.8c0,1.7,0,3.4,0,5.1c0.1,0,0.2,0,0.3,0c1.6,0,3.2,0,4.8,0c0.4,0,0.8-0.1,1.1-0.2
		c0.2,0,0.3-0.2,0.4-0.4c0.1-0.4,0.2-0.8,0.3-1.1c0.2-0.6,0.2-0.6,0.8-0.4c-0.1,1-0.2,2-0.3,3c-3.5,0-7.1,0-10.6,0
		c-0.1-0.4-0.1-0.4,0.2-0.5c0.5-0.1,0.6-0.5,0.6-1C35.1,13.2,35,10.1,35,7c0-0.9-0.1-1-1-1.1c-0.3,0-0.5,0-0.8-0.1
		c0-0.2,0-0.4,0-0.5c3.7,0,7.5,0,11.2,0C44.3,6.2,44.1,7.1,44,8c-0.2,0-0.4,0-0.6,0c0-0.4-0.1-0.7-0.1-1.1c-0.1-0.5,0-0.6-0.6-0.7
		S41.4,6,40.8,6c-0.8,0-1.6,0-2.4,0c-0.3,0-0.7,0.1-1.1,0.1c0,1.6-0.1,3.1-0.1,4.7c0.2,0,0.3,0.1,0.5,0.1c0.9,0,1.7,0,2.6,0
		c0.4,0,0.8-0.1,1.2-0.1c0.3,0,0.4-0.1,0.5-0.4s0.1-0.6,0.1-1c0.2,0,0.4,0,0.7,0c0,1.4,0,2.7,0,4c-0.2,0-0.4,0-0.7,0
		c-0.1-0.4-0.1-0.7-0.2-1c-0.1-0.4-0.2-0.5-0.6-0.6c-0.4,0-0.8-0.1-1.2-0.1c-0.9,0-1.7,0-2.6,0C37.5,11.8,37.4,11.8,37.3,11.8z"/>
	<path id="XMLID_36_" class="st0" d="M126.2,17.2c0,0.2,0,0.4,0,0.6c-0.8,0-1.7,0-2.5,0s-1.7,0-2.5,0c0-0.2,0-0.3,0-0.6
		c0.2,0,0.4,0,0.7,0c0.5,0,0.8-0.2,1.1-0.6c0.7-1.3,1.5-2.6,2.2-3.9c1.3-2.4,2.6-4.9,3.9-7.3c0.1-0.2,0.3-0.4,0.6-0.3
		c0.1,0,0.2,0,0.3,0c0.3,0.5,0.5,1,0.8,1.5c1.5,2.9,3,5.7,4.5,8.6c0.2,0.5,0.5,0.9,0.8,1.4c0.2,0.4,0.6,0.6,1,0.6c0.2,0,0.3,0,0.5,0
		c0,0.2,0,0.4,0,0.6c-1.9,0-3.9,0-5.8,0c0-0.2,0-0.4,0-0.6c0.3,0,0.6,0,0.9,0c0.3,0,0.5,0,0.7-0.1s0.3-0.2,0.3-0.4
		c0-0.1-0.1-0.2-0.1-0.3c-0.4-0.9-0.9-1.7-1.3-2.6l-0.1-0.1c-0.1,0-0.2,0-0.4,0c-1.8,0-3.6,0-5.4,0c-0.3,0-0.5,0.1-0.6,0.4
		c-0.3,0.7-0.7,1.3-1,2c-0.1,0.2-0.2,0.4-0.2,0.6c-0.1,0.3,0,0.5,0.3,0.5c0.3,0.1,0.7,0.1,1,0.1C125.8,17.2,126,17.2,126.2,17.2z
		 M131.6,12.8c-0.9-1.7-1.8-3.4-2.7-5.2c-0.9,1.8-1.8,3.5-2.7,5.2C128,12.8,129.8,12.8,131.6,12.8z"/>
	<path id="XMLID_22_" class="st0" d="M66.6,22.9c0,0.3,0,0.7,0,1.1c-14.2,0-28.4,0-42.7,0c0-0.2,0-0.3,0-0.5s0-0.4,0-0.5
		C24.2,22.8,66,22.8,66.6,22.9z"/>
	<path id="XMLID_21_" class="st0" d="M74,28.1c-0.1,0.1-0.1,0.2-0.1,0.3c-0.8,2.2-1.6,4.3-2.4,6.5c-0.1,0.2-0.1,0.5-0.2,0.7
		c-0.1,0.3,0,0.4,0.3,0.4c0.3,0.1,0.6,0.1,1,0.1c0,0.2,0,0.4,0,0.7c-0.2,0-0.4,0-0.5,0c-0.9,0-1.8,0-2.7,0c-0.6,0-0.7-0.1-0.5-0.7
		c0,0,0.1,0,0.2,0c0.6,0,0.9-0.3,1.1-0.8c0.5-1.3,1.1-2.6,1.6-3.9c0.8-2,1.6-4,2.3-6c0-0.1,0.1-0.2,0.1-0.2c0.4,0,0.8,0,1.2,0
		c0.3,0.7,0.6,1.4,0.9,2.1c1,2.4,2,4.9,2.9,7.3c0.1,0.3,0.3,0.6,0.4,0.9c0.2,0.4,0.5,0.6,0.9,0.6c0.1,0,0.2,0,0.4,0
		c0,0.2,0,0.5,0,0.7c-0.1,0-0.1,0-0.2,0c-1.6,0-3.2,0-4.9,0c0-0.3,0-0.5,0-0.7c0.1,0,0.3,0,0.4,0c0.2,0,0.4,0,0.6-0.1
		s0.3-0.2,0.2-0.4c0-0.1-0.1-0.3-0.1-0.4c-0.9-2.3-1.8-4.5-2.6-6.8C74.1,28.2,74,28.2,74,28.1z"/>
	<path id="XMLID_15_" class="st0" d="M59.2,5.3c0,0.9-0.1,1.9-0.1,2.8c-0.2,0-0.4,0-0.7,0c0-0.3-0.1-0.6-0.2-0.9
		c0-0.2-0.1-0.4-0.1-0.5c-0.1-0.4-0.2-0.5-0.6-0.5c-0.7,0-1.3-0.1-2-0.1c-0.5,0-1.1,0-1.6,0c0,0.1,0,0.2-0.1,0.3c0,1.3,0,2.7,0,4
		c0,1.8,0,3.6,0,5.4c0,0.3,0,0.6,0.1,0.8c0,0.2,0.2,0.4,0.4,0.4c0.4,0.1,0.7,0.1,1.1,0.1c0.2,0,0.4,0,0.6,0.1c0,0.2,0,0.3,0,0.5
		c-2.1,0-4.2,0-6.4,0c0-0.2,0-0.3,0-0.5c0.3,0,0.6,0,0.9-0.1c0.2,0,0.5-0.1,0.7-0.1s0.4-0.2,0.4-0.4s0.1-0.4,0.1-0.6c0-3,0-6,0-9.1
		c0-0.3,0-0.6-0.1-0.8c-0.1,0-0.1,0-0.2,0c-1.1,0-2.3,0-3.4,0.1c-0.5,0-0.6,0.1-0.6,0.6c-0.1,0.4-0.1,0.9-0.2,1.4
		c-0.2,0-0.4,0-0.7,0c0-0.9-0.1-1.9-0.1-2.9c1.4-0.1,2.8,0.1,4.3,0c1.4,0,2.8,0,4.2,0C56.4,5.3,57.8,5.3,59.2,5.3z"/>
	<path id="XMLID_14_" class="st0" d="M111.9,16.9c0.2,0,0.3,0,0.5,0c1.6,0,3.1,0,4.7,0c0.4,0,0.9-0.1,1.3-0.2c0.2,0,0.3-0.1,0.4-0.3
		c0.1-0.4,0.3-0.8,0.4-1.3s0.2-0.6,0.8-0.4c-0.1,1-0.2,2-0.3,3.1c-3.6,0-7.2,0-10.9,0c-0.1-0.3-0.1-0.4,0.2-0.5
		c0.6-0.1,0.7-0.6,0.7-1.1c0-1,0.1-2,0.1-2.9c0-2,0-4,0-6c0-0.3,0-0.6-0.1-0.8c0-0.4-0.2-0.5-0.5-0.5c-0.4,0-0.7-0.1-1.1-0.1
		c-0.1,0-0.3,0-0.4,0c0-0.2,0-0.4,0-0.5c2.1,0,4.2,0,6.4,0c0,0.2,0,0.3,0,0.5c-0.2,0-0.3,0-0.5,0c-0.4,0-0.7,0.1-1.1,0.1
		c-0.3,0-0.5,0.2-0.5,0.5c0,0.4-0.1,0.7-0.1,1.1c0,2,0,4.1,0,6.1c0,0.9,0,1.9,0,2.8C111.9,16.6,111.9,16.8,111.9,16.9z"/>
	<path id="XMLID_13_" class="st0" d="M100.4,5.3c0.1,0.5,0.1,0.6-0.4,0.6c-0.4,0-0.7,0-1.1,0.1s-0.5,0.2-0.5,0.5c0,0.2,0,0.5,0,0.7
		c0,2.4,0,4.9,0,7.3c0,0.8,0.1,1.6,0.1,2.4c0.1,0,0.3,0,0.4,0c1.6,0,3.3,0,4.9,0c0.4,0,0.8-0.1,1.2-0.2c0.2,0,0.3-0.2,0.4-0.3
		c0.1-0.4,0.2-0.9,0.4-1.3c0.1-0.5,0.2-0.6,0.8-0.4c-0.1,1-0.2,2-0.3,3.1c-3.6,0-7.3,0-10.9,0c-0.1-0.4-0.1-0.4,0.2-0.5
		c0.1,0,0.1-0.1,0.2-0.1c0.3-0.1,0.4-0.3,0.4-0.6c0-1.3,0.1-2.7,0.1-4c0-0.8,0-1.5,0-2.3c0-1.1,0-2.3-0.1-3.4c0-0.1,0-0.1,0-0.2
		c0-0.6-0.1-0.7-0.7-0.7c-0.3,0-0.6-0.1-1-0.1c-0.5,0-0.5-0.1-0.4-0.6C96.2,5.3,98.3,5.3,100.4,5.3z"/>
	<path id="XMLID_12_" class="st0" d="M86.7,17.8c0-0.2,0-0.3,0-0.5c0.2,0,0.3-0.1,0.5-0.1c0.4,0,0.7-0.1,1.1-0.1
		c0.2,0,0.4-0.2,0.4-0.4c0-0.3,0.1-0.7,0.1-1c0-2.8,0-5.7,0-8.5c0-0.2,0-0.4-0.1-0.7C88.6,6.1,88.5,6,88.2,6c-0.3-0.1-0.7-0.1-1-0.1
		c-0.1,0-0.3,0-0.5,0c0-0.2,0-0.4,0-0.5c2.1,0,4.2,0,6.3,0c0,0.2,0,0.3,0,0.5c-0.2,0-0.3,0-0.5,0c-0.3,0-0.7,0-1,0.1
		c-0.4,0.1-0.5,0.2-0.6,0.6c0,0.4-0.1,0.9-0.1,1.3c0,2.6,0,5.1,0,7.7c0,0.3,0,0.7,0.1,1c0.1,0.4,0.1,0.5,0.6,0.6
		c0.3,0.1,0.6,0,0.9,0.1c0.2,0,0.3,0,0.5,0.1c0,0.2,0,0.3,0,0.5C90.9,17.8,88.8,17.8,86.7,17.8z"/>
	<path id="XMLID_11_" class="st0" d="M31.9,17.2c0,0.2,0,0.3,0,0.5c-2.1,0-4.2,0-6.4,0c0-0.2,0-0.3,0-0.5c0.3,0,0.6,0,0.9-0.1
		c0.2,0,0.5-0.1,0.7-0.1c0.3,0,0.4-0.2,0.5-0.5c0-0.3,0.1-0.7,0.1-1c0-2.8,0-5.6,0-8.5c0-0.2,0-0.5-0.1-0.7
		c-0.1-0.3-0.2-0.5-0.5-0.5c-0.4,0-0.7-0.1-1.1-0.1c-0.5,0-0.5,0-0.5-0.6c2.1,0,4.2,0,6.4,0c0,0.2,0,0.3,0,0.5c-0.2,0-0.3,0-0.5,0
		c-0.3,0-0.7,0-1,0.1c-0.4,0.1-0.5,0.2-0.5,0.5S29.8,6.7,29.8,7c0,2.9,0,5.8,0,8.7c0,0.2,0,0.3,0,0.5c0.1,0.4,0.2,0.6,0.6,0.6
		c0.3,0.1,0.6,0,0.9,0.1C31.6,17.2,31.7,17.2,31.9,17.2z"/>
	<path id="XMLID_10_" class="st0" d="M40.3,31c0.1,0.2,0.3,0.5,0.4,0.7c0.4,0.7,0.9,1.4,1.3,2.1c0.2,0.2,0.4,0.4,0.7,0.5
		c0,0.1,0,0.2,0,0.4c-0.6,0-1.2,0-1.8,0c-0.7-1.2-1.4-2.4-2.2-3.7c0-0.1,0.1-0.1,0.3-0.1c0.9,0.1,1.5-0.9,1.2-1.9
		c-0.1-0.3-0.3-0.5-0.5-0.6c-0.3-0.2-0.8-0.2-1.3,0c0,0.2,0,0.4,0,0.6c0,1.5,0,3,0,4.4c0,0.1,0,0.3,0,0.4c0,0.3,0.1,0.4,0.4,0.4
		c0.1,0,0.2,0,0.4,0.1c0,0.1,0,0.3,0,0.4c-1,0-2,0-3,0c0-0.1,0-0.3,0-0.4c0.1,0,0.2,0,0.3-0.1c0.4,0,0.4-0.1,0.4-0.4s0-0.7,0-1
		c0-1.3,0-2.5,0-3.8c0-0.2,0-0.5-0.1-0.7c-0.2,0-0.5-0.1-0.7-0.1c0-0.1,0-0.2,0-0.4c0.1,0,0.1-0.1,0.1-0.1c1.3,0,2.7,0,4,0
		c1.1,0,1.7,0.7,1.4,1.8c-0.1,0.5-0.4,0.9-0.8,1.2C40.7,30.8,40.5,30.9,40.3,31z"/>
	<path id="XMLID_9_" class="st0" d="M91.4,34.2c0.1,0,0.2-0.1,0.3-0.1c0.4,0,0.4,0,0.5-0.5c0-0.2,0-0.4,0-0.6c0-1.3,0-2.6,0-3.9
		c0-0.3,0-0.6-0.1-1C91.8,28,91.6,28,91.4,28c0-0.1,0-0.2,0-0.4c0.1,0,0.1,0,0.2,0c1.3,0,2.6,0,4,0c0.1,0,0.3,0,0.4,0.1
		c0.8,0.2,1.1,0.8,1,1.5c0,0.7-0.4,1.3-1,1.6c-0.1,0.1-0.2,0.1-0.4,0.2c0,0.1,0,0.2,0.1,0.2c0.5,0.8,1.1,1.7,1.6,2.5
		c0.2,0.3,0.4,0.5,0.7,0.5c0,0.1,0,0.2,0,0.4c-0.6,0-1.2,0-1.8,0c-0.7-1.2-1.4-2.4-2.2-3.7c0.1,0,0.2-0.1,0.3-0.1
		c1-0.1,1.6-0.9,1.3-1.9c-0.1-0.3-0.2-0.5-0.5-0.6c-0.4-0.2-0.8-0.2-1.3-0.1c0,0.3,0,0.6,0,0.9c0,1.5,0,2.9,0,4.4c0,0.1,0,0.1,0,0.2
		c0,0.4,0.1,0.4,0.5,0.5c0.1,0,0.2,0,0.3,0.1c0,0.1,0,0.3,0,0.4c-1,0-2,0-3,0C91.4,34.5,91.4,34.4,91.4,34.2z"/>
	<path id="XMLID_8_" class="st0" d="M118.2,27.7c0,0.1,0,0.2,0,0.4c-0.2,0-0.3,0.1-0.5,0.1s-0.3,0.1-0.3,0.3c0,0.3-0.1,0.7-0.1,1
		c0,1.1,0,2.3,0,3.4c0,0.4,0,0.9,0,1.3c0,0.2,0,0.3,0,0.5c-0.5,0-0.9-0.1-1.2-0.5c-1.2-1.5-2.5-3-3.7-4.6c-0.1-0.1-0.2-0.2-0.3-0.4
		c0,0.2,0,0.2,0,0.3c0,1.3,0,2.6,0,3.8c0,0.1,0,0.1,0,0.2c0,0.4,0.1,0.4,0.4,0.4c0.1,0,0.2,0,0.3,0c0,0.1,0,0.1,0,0.2s0,0.1,0,0.2
		c-0.7,0-1.4,0-2.2,0c0-0.1,0-0.2,0-0.4c0.1,0,0.2-0.1,0.3-0.1c0.5-0.1,0.5-0.1,0.5-0.6c0-0.8,0-1.5,0-2.3s0-1.6,0-2.4
		c0-0.2,0-0.4-0.1-0.7c-0.2,0-0.5-0.1-0.7-0.1c0-0.1,0-0.2,0-0.4c0.7,0,1.4,0,2.1,0c1.2,1.7,2.5,3.3,3.9,4.9c0-0.1,0.1-0.1,0.1-0.1
		c0-1.2,0-2.5,0-3.7c0-0.6,0-0.6-0.6-0.6c-0.1,0-0.1,0-0.2,0c0-0.1,0-0.1,0-0.2c0-0.1,0-0.1,0-0.2C116.7,27.7,117.4,27.7,118.2,27.7
		z"/>
	<path id="XMLID_7_" class="st0" d="M81.3,28.1c0-0.1,0-0.1,0-0.2c0-0.1,0-0.1,0-0.2c1,0,2,0,3,0c0,0.1,0,0.2,0,0.4
		c-0.2,0-0.5,0.1-0.7,0.2c0,0.2-0.1,0.4-0.1,0.6c0,1.1,0,2.1,0,3.2c0,0.3,0,0.5,0.1,0.8c0,0.5,0.3,0.9,0.8,1.1
		c0.6,0.2,1.1,0.2,1.7,0c0.4-0.2,0.7-0.5,0.8-1c0-0.3,0.1-0.6,0.1-0.8c0-1,0-2.1,0-3.1c0-0.1,0-0.1,0-0.2c0-0.4-0.1-0.4-0.4-0.5
		c-0.1,0-0.2,0-0.3-0.1c0-0.1,0-0.2,0-0.4c0.8,0,1.5,0,2.2,0c0,0.1,0,0.2,0,0.4c-0.7,0.2-0.7,0.2-0.7,1c0,1,0,2,0,2.9
		c0,0.4-0.1,0.8-0.1,1.2c-0.1,0.7-0.6,1.2-1.2,1.4c-1.1,0.4-2.1,0.4-3.2-0.1c-0.6-0.3-0.9-0.7-1-1.4c0-0.6-0.1-1.2-0.1-1.7
		c0-0.7,0-1.5,0-2.2c0-0.2,0-0.4,0-0.6c0-0.3-0.1-0.4-0.4-0.4C81.5,28.1,81.4,28.1,81.3,28.1z"/>
	<path id="XMLID_6_" class="st0" d="M47.9,34c0.8,0.1,1.5,0,2.2,0c0.2,0,0.3-0.1,0.3-0.3c0-0.2,0.1-0.5,0.1-0.7c0.1,0,0.2,0,0.4,0
		c0,0.6-0.1,1.1-0.1,1.7c-1.6,0-3.2,0-4.8,0c-0.1-0.2,0-0.3,0.1-0.3c0.2-0.1,0.3-0.3,0.3-0.6c0-1.6,0-3.3,0-4.9
		c0-0.7-0.1-0.6-0.6-0.7c0,0-0.1,0-0.2,0c0-0.1,0-0.2,0-0.4c1.7,0,3.3,0,5,0c0,0.5-0.1,0.9-0.1,1.4c0,0.2-0.2,0.2-0.4,0.2
		c0-0.3-0.1-0.5-0.1-0.8c-0.7-0.2-1.4-0.1-2.1-0.1c0,0.8,0,1.6,0,2.4c0.5,0.1,1.1,0.1,1.7,0c0-0.2,0.1-0.5,0.1-0.7
		c0.1,0,0.2,0,0.4,0c0,0.7,0,1.4,0,2.2c-0.1,0-0.2,0-0.4,0c0-0.1,0-0.2-0.1-0.3c0-0.4-0.1-0.5-0.5-0.5s-0.8,0-1.2,0
		C47.9,32.2,47.9,33.1,47.9,34z"/>
	<path id="XMLID_5_" class="st0" d="M107.6,34.2c0,0.1,0,0.2,0,0.2c0,0.1,0,0.1,0,0.2c-1,0-2,0-3,0c0-0.1,0-0.2,0-0.4
		c0.2,0,0.4-0.1,0.7-0.1c-0.1-0.6-0.4-1-0.5-1.6c-0.8,0-1.6,0-2.5,0c-0.1,0.4-0.3,0.8-0.4,1.2c-0.1,0.2,0,0.3,0.2,0.4
		c0.1,0,0.3,0.1,0.4,0.1c0,0.1,0,0.2,0,0.4c-0.7,0-1.4,0-2.2,0c0-0.1,0-0.2,0-0.4c0.1,0,0.1-0.1,0.2-0.1c0.4,0,0.5-0.2,0.7-0.6
		c0.7-1.8,1.4-3.7,2.2-5.5c0.2-0.6,0.2-0.6,0.9-0.5c0.1,0.1,0.1,0.3,0.2,0.4c0.8,1.8,1.5,3.7,2.3,5.5
		C106.9,34,107.1,34.3,107.6,34.2z M104.5,31.9c-0.3-0.8-0.6-1.6-0.9-2.4h-0.1c-0.3,0.8-0.6,1.6-0.9,2.4
		C103.2,31.9,103.8,31.9,104.5,31.9z"/>
	<path id="XMLID_4_" class="st0" d="M54.3,34.4c0-0.6,0.1-1.2,0.1-1.7c0.1,0,0.2,0,0.3,0c0,0.1,0.1,0.1,0.1,0.1c0,0.1,0,0.1,0,0.2
		c0,0.5,0.2,0.9,0.7,1.1c0.4,0.2,0.8,0.3,1.2,0.2c0.7-0.1,1.2-0.6,1.2-1.3c0-0.5-0.2-0.9-0.7-1c-0.4-0.1-0.8-0.2-1.2-0.3
		c-0.3-0.1-0.5-0.1-0.8-0.2c-0.5-0.2-0.7-0.5-0.9-1c-0.3-1.2,0.2-2.5,1.6-2.8c0.8-0.2,1.6-0.2,2.4,0.1c0.4,0.1,0.4,0.1,0.3,0.5
		c0,0.4-0.1,0.8-0.1,1.2c-0.1,0-0.2,0-0.4,0c0-0.2,0-0.4,0-0.6c0-0.2-0.1-0.4-0.3-0.5c-0.5-0.3-1.1-0.4-1.6-0.2
		c-0.6,0.2-0.9,0.8-0.7,1.4c0.1,0.4,0.4,0.6,0.7,0.6c0.5,0.1,1,0.2,1.6,0.3c0.8,0.2,1.2,0.6,1.3,1.3c0.2,1.3-0.5,2.4-1.8,2.8
		C56.3,35,55.3,34.9,54.3,34.4z"/>
	<path id="XMLID_3_" class="st0" d="M121.2,29.3c0-0.6,0-1.1,0-1.6c2,0,4,0,6.1,0c0,0.5,0,1.1,0,1.6c-0.2,0-0.3,0-0.4,0
		c0-0.2-0.1-0.4-0.1-0.6c0-0.2-0.1-0.4-0.4-0.4c-0.5,0-0.9,0-1.4,0c0,0.1,0,0.2,0,0.2c0,1.7,0,3.4,0,5.1c0,0.1,0,0.2,0,0.3
		c0,0.2,0.1,0.3,0.3,0.3c0.1,0,0.3,0,0.5,0.1c0,0.1,0,0.3,0,0.4c-1,0-2,0-3.1,0c0-0.1,0-0.3,0-0.4c0.2,0,0.3-0.1,0.5-0.1
		s0.3-0.1,0.3-0.3c0-0.4,0.1-0.7,0.1-1.1c0-1.3,0-2.5,0-3.8c0-0.2,0-0.4,0-0.6c-0.5,0-1,0-1.5,0c-0.2,0-0.3,0.1-0.3,0.3
		s0,0.4-0.1,0.6C121.4,29.3,121.3,29.3,121.2,29.3z"/>
	<path id="XMLID_2_" class="st0" d="M62.8,29.3c-0.1,0-0.2,0-0.4,0c0-0.6,0-1.1,0-1.7c2,0,4,0,6.1,0c0,0.5,0,1.1-0.1,1.6
		c-0.1,0-0.3,0-0.4,0c0-0.2,0-0.4,0-0.6c0-0.3-0.1-0.4-0.4-0.4c-0.5,0-0.9,0-1.4,0c0,0.1,0,0.2,0,0.2c0,1.6,0,3.2,0,4.8
		c0,0.1,0,0.2,0,0.3c0.1,0.4,0.1,0.4,0.5,0.5c0.3,0,0.4,0.1,0.2,0.5c-1,0-2,0-3,0c0-0.1,0-0.3,0-0.4c0.1,0,0.2,0,0.3-0.1
		c0.4,0,0.4-0.1,0.4-0.4c0-0.2,0-0.4,0-0.6c0-1.4,0-2.9,0-4.3c0-0.1,0-0.3,0-0.5c-0.5,0-1.1-0.1-1.6,0c-0.1,0-0.2,0.1-0.2,0.2
		C62.9,28.8,62.8,29.1,62.8,29.3z"/>
</g>
</svg>