<?xml version="1.0" encoding="utf-8"?>
<!-- Generator: Adobe Illustrator 21.1.0, SVG Export Plug-In . SVG Version: 6.00 Build 0)  -->
<svg version="1.1" id="Layer_1" xmlns="http://www.w3.org/2000/svg" xmlns:xlink="http://www.w3.org/1999/xlink" x="0px" y="0px"
	 viewBox="0 0 142.9 75" style="enable-background:new 0 0 142.9 75;" xml:space="preserve">
<style type="text/css">
	.st0{fill:#231F20;}
	.st1{fill:#404041;}
	.st2{fill:#EE4036;}
</style>
<g>
	<g>
		<path class="st0" d="M71.7,66.7c-6.7,0-13.2-2.3-18.4-6.5c-5.1-4.1-8.7-9.9-10.1-16.3l0.8-0.2c1.4,6.2,4.9,11.8,9.8,15.8
			c5,4.1,11.3,6.3,17.8,6.3c6.5,0,12.8-2.2,17.8-6.3c4.9-4,8.4-9.6,9.8-15.8l0.8,0.2c-1.4,6.4-5,12.1-10.1,16.3
			C84.9,64.4,78.4,66.7,71.7,66.7z"/>
	</g>
	<g>
		<path class="st0" d="M71.7,73.2c-17.3,0-32-12.3-35.1-29.3l0.8-0.2c3,16.5,17.4,28.6,34.3,28.6s31.3-12,34.3-28.6l0.8,0.2
			C103.7,60.9,89,73.2,71.7,73.2z"/>
	</g>
	<g>
		<path class="st0" d="M105.9,30.8C102.7,14.5,88.4,2.7,71.7,2.7c-16.7,0-31,11.8-34.2,28.2l-0.8-0.2c3.2-16.7,18-28.9,35.1-28.9
			c17.1,0,31.8,12.1,35.1,28.9L105.9,30.8z"/>
	</g>
	<g>
		<path class="st0" d="M99.3,30.8c-1.5-6.1-5-11.6-9.9-15.5c-5.1-4-11.2-6.2-17.7-6.2c-6.5,0-12.6,2.1-17.7,6.2
			c-4.9,3.9-8.4,9.4-9.9,15.5l-0.8-0.2c1.5-6.3,5.1-11.9,10.2-16c5.2-4.2,11.5-6.4,18.2-6.4c6.7,0,13,2.2,18.2,6.4
			c5.1,4,8.7,9.7,10.2,16L99.3,30.8z"/>
	</g>
	<g>
		<path class="st1" d="M46.1,17.2c0.3,0.2,0.3,0.5,0.2,0.8c0.3-0.3,0.7-0.3,1-0.1c0.4,0.3,0.4,0.8,0,1.3l-0.8,1.1l-2.4-1.7l0.8-1
			C45.3,17.1,45.7,16.9,46.1,17.2 M45.9,17.7c-0.2-0.1-0.4-0.1-0.6,0.2l-0.4,0.6l0.6,0.5l0.4-0.6C46.1,18.1,46.1,17.8,45.9,17.7
			 M47,18.3c-0.2-0.2-0.5-0.1-0.7,0.3l-0.4,0.6l0.7,0.5l0.4-0.6C47.2,18.8,47.2,18.5,47,18.3"/>
	</g>
	<g>
		<path class="st1" d="M49.4,15.9l-1,1.1l0.3,0.7L48.3,18L47,15l0.3-0.4l3,1.1L50,16.1L49.4,15.9z M48.9,15.7l-1.3-0.5l0.6,1.3
			L48.9,15.7z"/>
	</g>
	<g>
		<polygon class="st1" points="49.4,12.7 52,13.3 50.6,11.6 51,11.3 52.9,13.6 52.5,13.9 49.9,13.3 51.3,14.9 50.9,15.2 49,13 		"/>
	</g>
	<g>
		<polygon class="st1" points="52.6,10.2 53.3,11.2 54.6,10.4 53.9,9.3 54.3,9 55.9,11.5 55.5,11.7 54.8,10.7 53.5,11.6 54.2,12.6 
			53.8,12.9 52.1,10.4 		"/>
	</g>
	<g>
		<polygon class="st1" points="57.7,7.2 59.4,8.6 59.5,6.4 60,6.2 61.2,8.9 60.8,9.1 59.9,7.1 59.8,9.2 59.5,9.3 57.9,7.9 58.7,10 
			58.3,10.1 57.2,7.4 		"/>
	</g>
	<g>
		<rect x="61.8" y="5.6" transform="matrix(0.9533 -0.3021 0.3021 0.9533 0.757 19.0784)" class="st1" width="0.5" height="3"/>
	</g>
	<g>
		<path class="st1" d="M65.5,6.5c0,0.2-0.1,0.3-0.2,0.3S65,6.7,65,6.6c0-0.2,0.1-0.3,0.2-0.3C65.4,6.2,65.5,6.3,65.5,6.5"/>
	</g>
	<g>
		<path class="st1" d="M70.5,5.1c0.1,0.7-0.3,1.1-1.1,1.1l-0.7,0.1l0.1,0.9l-0.5,0l-0.2-2.9l1.2-0.1C70,4.2,70.5,4.5,70.5,5.1
			 M70,5.2c0-0.4-0.3-0.6-0.8-0.5l-0.7,0.1l0.1,1.2l0.7-0.1C69.8,5.8,70.1,5.6,70,5.2"/>
	</g>
	<g>
		<polygon class="st1" points="72.1,4.1 72.1,5.4 73.6,5.5 73.7,4.2 74.2,4.2 74.1,7.1 73.6,7.1 73.6,5.9 72,5.8 72,7.1 71.5,7.1 
			71.6,4.1 		"/>
	</g>
	<g>
		<path class="st1" d="M78.2,6.2c-0.1,0.8-0.9,1.4-1.8,1.2c-0.9-0.1-1.4-0.9-1.3-1.7c0.1-0.8,0.9-1.4,1.8-1.2
			C77.8,4.7,78.4,5.4,78.2,6.2 M75.6,5.8C75.6,6.4,76,6.9,76.5,7c0.6,0.1,1.1-0.3,1.2-0.9c0.1-0.6-0.3-1.1-0.9-1.2
			C76.3,4.9,75.7,5.2,75.6,5.8"/>
	</g>
	<g>
		<path class="st1" d="M81.1,7.3c0,0.1-0.2,0.2-0.3,0.2c-0.1,0-0.2-0.2-0.2-0.3c0-0.1,0.2-0.2,0.3-0.2C81.1,7,81.2,7.1,81.1,7.3"/>
	</g>
	<g>
		<path class="st1" d="M85.4,7.6c-0.5-0.2-1.1,0-1.4,0.5s0,1.1,0.5,1.4c0.3,0.1,0.6,0.1,0.9,0l0.1,0.4c-0.4,0.1-0.9,0.1-1.2,0
			c-0.8-0.4-1.1-1.2-0.8-2c0.3-0.8,1.2-1.1,2-0.7C86,7.3,86.3,7.6,86.4,8L86,8.2C85.9,7.9,85.7,7.7,85.4,7.6"/>
	</g>
	<g>
		<path class="st1" d="M89.4,10.9c-0.4,0.7-1.4,0.9-2.1,0.5c-0.8-0.5-1-1.4-0.6-2.1c0.4-0.7,1.3-0.9,2.1-0.5
			C89.5,9.3,89.8,10.2,89.4,10.9 M87.1,9.5C86.8,10,87,10.7,87.5,11c0.5,0.3,1.1,0.1,1.4-0.4c0.3-0.5,0.1-1.1-0.4-1.4
			C88,8.9,87.4,9,87.1,9.5"/>
	</g>
	<g>
		<polygon class="st1" points="92.7,11.5 92.4,11.9 91.2,11 90.7,11.6 91.8,12.5 91.5,12.8 90.4,12 89.7,13 89.3,12.7 91.1,10.3 		
			"/>
	</g>
	<g>
		<polygon class="st1" points="94.9,13.5 94.6,13.8 93.5,12.9 93,13.5 94,14.4 93.7,14.7 92.7,13.8 91.9,14.7 91.5,14.4 93.5,12.2 
					"/>
	</g>
	<g>
		<polygon class="st1" points="97.1,15.8 96.8,16.1 95.7,15 95.1,15.5 96.1,16.6 95.8,16.9 94.8,15.8 94.2,16.3 95.3,17.6 95,17.9 
			93.5,16.3 95.7,14.3 		"/>
	</g>
	<g>
		<polygon class="st1" points="99.2,18.5 98.8,18.8 97.9,17.5 97.2,18 98.1,19.2 97.7,19.4 96.9,18.3 96.2,18.7 97.2,20.1 
			96.9,20.3 95.6,18.6 97.9,16.9 		"/>
	</g>
	<g>
		<polygon class="st0" points="45.7,53.1 44.2,55.1 46.6,54.6 46.9,55 43.8,55.6 43.6,55.2 45.4,52.6 		"/>
	</g>
	<g>
		
			<rect x="44.9" y="56.4" transform="matrix(0.7976 -0.6032 0.6032 0.7976 -24.7812 39.4197)" class="st0" width="2.9" height="0.5"/>
	</g>
	<g>
		<polygon class="st0" points="49.7,58.4 49.4,58.7 48.3,57.5 47.7,58 48.7,59.1 48.3,59.3 47.4,58.3 46.8,58.8 47.9,60 47.6,60.3 
			46.1,58.7 48.3,56.8 		"/>
	</g>
	<g>
		<polygon class="st0" points="51.8,60.4 51.5,60.7 50.8,60.1 49.2,61.9 48.8,61.6 50.5,59.8 49.8,59.1 50.1,58.8 		"/>
	</g>
	<g>
		<polygon class="st0" points="52.7,61.2 52.7,63.8 54,62.1 54.4,62.4 52.6,64.7 52.2,64.4 52.2,61.8 51,63.5 50.6,63.2 52.4,60.9 
					"/>
	</g>
	<g>
		<path class="st0" d="M55.7,65.9l-1.3-0.7l-0.6,0.4l-0.4-0.3l2.6-1.8l0.4,0.3l-0.4,3.1l-0.4-0.3L55.7,65.9z M55.8,65.4L56,64
			l-1.1,0.8L55.8,65.4z"/>
	</g>
	<g>
		<polygon class="st0" points="58.7,64.9 58.8,67 60.4,65.7 60.9,65.9 59.8,68.5 59.4,68.4 60.2,66.4 58.6,67.7 58.3,67.6 
			58.2,65.5 57.4,67.5 57,67.3 58.1,64.7 		"/>
	</g>
	<g>
		<polygon class="st0" points="63.9,66.8 63.8,67.2 62.3,66.8 62,67.5 63.4,67.9 63.3,68.4 61.9,68 61.7,68.7 63.2,69.2 63.1,69.6 
			61.1,69 61.9,66.2 		"/>
	</g>
	<g>
		<path class="st0" d="M65.6,67.7c-0.3-0.1-0.5,0-0.5,0.2c-0.1,0.6,1.5,0.6,1.3,1.6c-0.1,0.5-0.6,0.7-1.2,0.6
			c-0.4-0.1-0.8-0.4-1.1-0.7l0.3-0.4c0.2,0.3,0.6,0.5,0.9,0.6c0.3,0.1,0.6,0,0.6-0.2c0.1-0.6-1.5-0.6-1.3-1.6
			c0.1-0.5,0.6-0.7,1.2-0.6c0.4,0.1,0.7,0.3,0.9,0.5l-0.3,0.4C66.2,67.8,65.9,67.7,65.6,67.7"/>
	</g>
	<g>
		<polygon class="st0" points="69.7,67.8 69.7,68.2 68.1,68 68,68.8 69.4,69 69.4,69.4 68,69.3 67.9,70.1 69.5,70.2 69.5,70.7 
			67.4,70.5 67.7,67.6 		"/>
	</g>
	<g>
		<path class="st0" d="M73.2,68.2c-0.3,0-0.5,0.1-0.5,0.3c0,0.6,1.6,0.2,1.6,1.3c0,0.5-0.4,0.9-1.1,0.9c-0.5,0-0.9-0.1-1.2-0.4
			l0.2-0.4c0.3,0.3,0.7,0.4,1,0.4c0.3,0,0.5-0.2,0.5-0.4c0-0.6-1.6-0.2-1.6-1.2c0-0.5,0.4-0.8,1-0.9c0.4,0,0.8,0.1,1,0.2l-0.2,0.4
			C73.8,68.3,73.4,68.2,73.2,68.2"/>
	</g>
	<g>
		<polygon class="st0" points="77.1,67.4 77.2,67.8 76.3,67.9 76.6,70.4 76.1,70.4 75.8,68 74.9,68.1 74.8,67.7 		"/>
	</g>
	<g>
		<path class="st0" d="M80.3,69.6l-0.7-0.7c0,0-0.1,0-0.1,0l-0.7,0.2l0.2,0.9L78.5,70l-0.7-2.8l1.1-0.3c0.7-0.2,1.2,0.1,1.4,0.7
			c0.1,0.5,0,0.8-0.4,1.1l0.9,0.8L80.3,69.6z M79.4,68.5c0.4-0.1,0.6-0.4,0.5-0.7c-0.1-0.4-0.4-0.5-0.8-0.4l-0.7,0.2l0.3,1.1
			L79.4,68.5z"/>
	</g>
	<g>
		<polygon class="st0" points="83,65.7 83.1,66.1 81.6,66.6 81.9,67.4 83.2,66.9 83.4,67.3 82,67.8 82.3,68.5 83.8,68 84,68.4 
			82,69.1 81,66.4 		"/>
	</g>
	<g>
		<polygon class="st0" points="85.7,64.4 85.9,64.8 84.5,65.5 84.8,66.2 86.1,65.6 86.3,66 85,66.6 85.3,67.3 86.8,66.6 87,67 
			85.1,67.9 83.8,65.3 		"/>
	</g>
	<g>
		<polygon class="st0" points="88.2,62.9 88.5,63.3 87.7,63.8 88.9,65.9 88.5,66.2 87.3,64 86.5,64.5 86.2,64.1 		"/>
	</g>
	<g>
		<polygon class="st0" points="91.7,60.4 91.9,60.7 90.8,61.6 91.3,62.3 92.3,61.4 92.6,61.8 91.6,62.6 92.3,63.5 92,63.8 
			90.1,61.6 		"/>
	</g>
	<g>
		<path class="st0" d="M95.2,58.9c0.6,0.6,0.6,1.5,0,2.1c-0.6,0.6-1.5,0.6-2.1,0c-0.6-0.6-0.6-1.5,0.1-2.1
			C93.7,58.3,94.7,58.3,95.2,58.9 M93.4,60.7c0.4,0.4,1.1,0.4,1.5,0c0.4-0.4,0.4-1.1,0-1.5c-0.4-0.4-1.1-0.4-1.5,0
			C93,59.7,93,60.3,93.4,60.7"/>
	</g>
	<g>
		<path class="st0" d="M97.6,56c0.6,0.5,0.7,1.4,0.2,2.1c-0.5,0.7-1.5,0.8-2.1,0.3c-0.7-0.5-0.7-1.4-0.2-2.1
			C96,55.6,96.9,55.5,97.6,56 M96,58c0.5,0.4,1.1,0.3,1.5-0.2c0.4-0.4,0.3-1.1-0.2-1.5c-0.5-0.4-1.1-0.3-1.4,0.2
			C95.4,57,95.5,57.7,96,58"/>
	</g>
	<g>
		<path class="st0" d="M99.5,52.9c0.7,0.4,0.9,1.3,0.4,2.1l-0.6,1l-2.5-1.5l0.6-1C98,52.7,98.8,52.5,99.5,52.9 M99.3,53.3
			c-0.5-0.3-1.1-0.2-1.4,0.3l-0.4,0.6l1.7,1.1l0.4-0.6C99.9,54.2,99.8,53.7,99.3,53.3"/>
	</g>
	<g>
		<path class="st2" d="M43.7,41.3v-7.1h2.9c0.6,0,1,0.2,1.3,0.5c0.3,0.4,0.6,0.9,0.6,1.5c0,0.5-0.1,0.9-0.4,1.3
			c0.5,0.3,0.8,0.8,0.9,1.3c0,0.1,0,0.3,0,0.4c0,1.5-1.2,2-2.5,2.1H43.7z M44.9,37.2h1.6c0.6,0,0.9-0.4,0.9-1c0-0.5-0.3-0.8-0.7-0.8
			h-1.7V37.2z M44.9,40.2h1.9c0.2,0,0.7-0.1,0.9-0.4c0.1-0.2,0.2-0.3,0.2-0.5c0-0.1,0-0.2,0-0.2c0-0.2-0.1-0.4-0.3-0.5
			c-0.2-0.1-0.4-0.2-0.6-0.2h-2.1V40.2z"/>
	</g>
	<g>
		<path class="st2" d="M55.9,41.3h-1.3l-0.6-1.5h-2.9l-0.6,1.5h-1.3l2.6-7.1h1.3L55.9,41.3z M53.6,38.7l-1-2.7l-1,2.7H53.6z"/>
	</g>
	<g>
		<polygon class="st2" points="63.9,41.3 62.7,41.3 62.7,36.4 60.2,40 57.7,36.4 57.7,41.3 56.5,41.3 56.5,34.2 57.6,34.2 
			60.2,37.9 62.8,34.2 63.9,34.2 		"/>
	</g>
	<g>
		<rect x="64.7" y="34.2" class="st2" width="1.2" height="7.1"/>
	</g>
	<g>
		<polygon class="st2" points="74.9,34.2 74.9,41.3 73.7,41.3 73.7,39.9 70.5,39.9 70.5,41.3 69.3,41.3 69.3,34.2 70.5,34.2 
			70.5,38.7 73.7,38.7 73.7,34.2 		"/>
	</g>
	<g>
		<path class="st2" d="M75.6,37.8c0-2,1.6-3.6,3.6-3.6c2,0,3.6,1.6,3.6,3.6c0,2-1.6,3.6-3.6,3.6C77.2,41.3,75.6,39.7,75.6,37.8
			 M76.8,37.8c0,1.3,1.1,2.4,2.4,2.4c1.3,0,2.4-1.1,2.4-2.4c0-1.3-1.1-2.4-2.4-2.4C77.9,35.4,76.8,36.5,76.8,37.8"/>
	</g>
	<g>
		<path class="st2" d="M83.7,39.9c-0.3-0.7-0.3-1.3-0.3-1.3v-4.4h1.2v4.4c0,0,0,0.4,0.2,0.9c0.2,0.5,0.7,0.7,1.3,0.7
			c0.6,0,1-0.2,1.3-0.7c0.2-0.4,0.2-0.9,0.2-0.9v-4.4h1.2v4.4c0,0.1,0,0.7-0.3,1.3c-0.4,0.9-1.3,1.4-2.4,1.4
			C85,41.3,84.1,40.8,83.7,39.9"/>
	</g>
	<g>
		<path class="st2" d="M89.4,39.7l1.1-0.4c0.2,0.6,0.8,0.8,1.3,0.8c0.1,0,0.1,0,0.1,0c0.5,0,1.1-0.3,1.3-0.9c0-0.1,0-0.1,0-0.2
			c0-0.2-0.1-0.4-0.2-0.5c-0.3-0.3-0.8-0.5-1.4-0.5c-0.6,0-1.4-0.2-1.9-1c-0.3-0.4-0.3-0.9-0.3-0.9c0-0.1,0-0.5,0.3-1
			c0.5-0.8,1.3-0.9,1.9-0.9c1,0,1.8,0.7,1.8,0.8l-0.7,1c0,0-0.6-0.6-1.2-0.6c-0.2,0-0.6,0-0.9,0.4c-0.1,0.2-0.1,0.3-0.1,0.4
			s0,0.2,0.1,0.4c0.2,0.2,0.4,0.3,0.9,0.4c0.9,0,1.8,0.4,2.2,1c0.3,0.4,0.4,0.8,0.4,1.3c0,0.1,0,0.3,0,0.4c-0.2,1-1.1,1.7-2.3,1.8
			c-0.1,0-0.2,0-0.2,0C90.6,41.3,89.7,40.7,89.4,39.7"/>
	</g>
	<g>
		<polygon class="st2" points="96.2,35.4 96.2,37.5 99.1,37.5 99.1,38.7 96.2,38.7 96.2,40.2 99.7,40.2 99.7,41.3 95,41.3 95,34.2 
			99.7,34.2 99.7,35.4 		"/>
	</g>
	<g>
		<path class="st0" d="M56.6,30.9c2.2,0.1,4.1-0.5,5.9-1.7c0.8-0.6,1.7-1,2.6-1.2c1.3-0.3,2.5-0.4,4-0.2c-2,1-3.7,2-5.6,3.1
			c0.2,0.1,0.3,0.1,0.3,0.1c1.8,0,3.5,0,5.3,0c4.4,0,2.9,0.4,6.9-1.8c1.2-0.7,2.4-1.2,3.7-1.4c0.9-0.1,1.7-0.3,2.6,0.1
			c-1.9,0.7-3.5,1.8-5.2,3c0.2,0,0.3,0.1,0.4,0.1c5,0,10,0,14.9,0c0.4,0,0.5-0.1,0.3-0.5c-0.7-1.4-1.8-2.2-3.1-2.9
			c-3.2-1.6-6.6-2.4-10-2.8c-4.2-0.6-8.4-0.6-12.6-0.2c-3.6,0.3-7.1,0.9-10.5,2.3c-1.4,0.5-2.7,1.2-3.7,2.2c-0.6,0.5-1,1.1-1.2,2
			C53.2,30.9,54.9,30.8,56.6,30.9"/>
	</g>
	<g>
		<polygon class="st0" points="66,49.4 66,53.8 65.2,53.8 65.2,50.1 64.3,50.1 64.3,49.4 		"/>
	</g>
	<g>
		<path class="st0" d="M69.2,53.1c0.8,0,1.2-0.6,1.2-1.5c-0.2,0.4-0.6,0.6-1.1,0.6c-0.9,0-1.4-0.5-1.4-1.4c0-0.9,0.6-1.5,1.5-1.5
			c1.1,0,1.8,0.8,1.8,2.1c0,1.4-0.7,2.3-1.9,2.3c-0.4,0-1-0.1-1.3-0.3l0.3-0.6C68.5,53,68.9,53.1,69.2,53.1 M68.6,50.8
			c0,0.5,0.3,0.7,0.8,0.7c0.5,0,0.9-0.3,0.9-0.8c0-0.4-0.2-0.8-0.8-0.8C68.9,50.1,68.6,50.4,68.6,50.8"/>
	</g>
	<g>
		<polygon class="st0" points="75.2,49.4 75.2,50 73.5,53.8 72.6,53.8 74.3,50.1 72.6,50.1 72.6,50.7 71.9,50.7 71.9,49.4 		"/>
	</g>
	<g>
		<path class="st0" d="M77.8,50c-0.8,0-1.2,0.6-1.2,1.5c0.2-0.4,0.6-0.6,1.1-0.6c0.9,0,1.4,0.5,1.4,1.4c0,0.9-0.6,1.5-1.6,1.5
			c-1.1,0-1.8-0.8-1.8-2.1c0-1.4,0.7-2.3,1.9-2.3c0.4,0,1,0.1,1.3,0.3l-0.3,0.6C78.5,50.1,78.2,50,77.8,50 M76.8,52.3
			c0,0.4,0.3,0.8,0.8,0.8c0.5,0,0.8-0.3,0.8-0.8c0-0.5-0.3-0.7-0.8-0.7C77.1,51.6,76.8,51.9,76.8,52.3"/>
	</g>
	<g>
		<rect x="65.3" y="55.8" class="st0" width="12.7" height="0.5"/>
	</g>
	<g>
		<path class="st0" d="M38,38c0,0.8-0.6,1.4-1.4,1.4c-0.8,0-1.4-0.6-1.4-1.4c0-0.8,0.6-1.4,1.4-1.4C37.4,36.6,38,37.3,38,38"/>
	</g>
	<g>
		<path class="st0" d="M107.7,38c0,0.8-0.6,1.4-1.4,1.4c-0.8,0-1.4-0.6-1.4-1.4c0-0.8,0.6-1.4,1.4-1.4
			C107.1,36.6,107.7,37.3,107.7,38"/>
	</g>
	<g>
		<path class="st0" d="M82,15.4c0.1-0.1,0.2-0.3,0.2-0.4c0-0.1-0.1-0.2-0.2-0.2c0,0,0,0,0,0c0.1-0.1,0.2-0.2,0.2-0.3
			c0.1-0.2,0.1-0.3,0-0.5c-0.1-0.1-0.3-0.1-0.5-0.1c-0.1,0-0.3,0.1-0.4,0.2c0,0,0,0,0,0c0-0.1-0.1-0.2-0.2-0.3
			c-0.1-0.1-0.3,0-0.4,0.1c-0.1,0.1-0.2,0.2-0.3,0.3c0,0,0,0,0,0c0-0.1,0-0.1,0-0.2c0-0.1-0.1-0.2-0.2-0.2c-0.1,0-0.1,0-0.2,0
			c-0.3,0-0.5,0.3-0.7,0.5c-0.2,0.2-0.3,0.3-0.4,0.5c-0.2,0.2-0.3,0.5-0.4,0.8c0,0-0.1,0.1-0.1,0.1c0,0-0.1,0-0.1,0
			c-0.1,0,0-0.2,0-0.2c0.1-0.2,0.2-0.4,0.3-0.5c0.1-0.2,0.1-0.4,0.1-0.6c0-0.2-0.2-0.4-0.4-0.4c-0.2-0.1-0.4,0-0.5,0.2
			c0-0.1,0-0.1-0.1-0.1c-0.1,0-0.2,0-0.2,0.1c-0.1,0.1-0.1,0.2-0.1,0.2c0,0,0,0.1-0.1,0.1c0,0-0.1,0-0.1,0c0-0.1,0-0.1-0.1-0.2
			c0,0,0-0.1-0.1-0.1c0,0-0.1,0-0.1,0c-0.5,0.3-0.8,0.9-0.8,1.5c0,0.7-0.3,1.4-0.8,2c-0.1,0.1-0.2,0.2-0.3,0.2
			c-0.1,0-0.2,0.1-0.2,0.1c-0.1,0-0.1-0.1-0.1-0.2c0,0,0-0.1,0-0.1c0.3-0.3,0.6-0.7,0.8-1c0.2-0.4,0.4-0.8,0.4-1.2
			c0-0.1,0-0.2-0.1-0.2c0,0-0.1-0.1-0.1-0.1c0,0,0,0,0-0.1c0.1-0.2,0.2-0.4,0.1-0.6c-0.1-0.2-0.3-0.4-0.6-0.5
			c-0.2,0-0.5,0.1-0.6,0.3c0,0,0,0,0,0c0-0.1-0.1-0.2-0.1-0.3c-0.1-0.1-0.2-0.1-0.2,0c-0.2,0.2-0.3,0.5-0.4,0.7c0-0.2,0-0.3-0.1-0.4
			C73.6,14,73.5,14,73.4,14c-0.3,0-0.4,0.3-0.4,0.5c0,0.1,0,0.2-0.1,0.3c0,0-0.1,0-0.1,0c0-0.1-0.1-0.2-0.2-0.3
			c-0.2-0.1-0.4-0.1-0.6,0c-0.2,0.1-0.3,0.3-0.4,0.4c-0.1,0.1-0.1,0.3-0.1,0.5c0,0,0,0.1-0.1,0.1c0,0,0,0,0,0c-0.1,0-0.1,0-0.2,0.1
			c-0.2,0.3-0.1,0.7,0,1.1c0.2,0.9,0.6,1.7,0.7,2.6c0.1,0.5,0.1,1,0.1,1.5c0,0.3-0.1,0.6-0.3,0.9c-0.2,0.3-0.4,0.5-0.6,0.7
			c-0.4,0.4-0.9,0.7-1.3,1.1c-0.1,0.1-0.3,0.3-0.4,0.2c-0.4-0.1,0.2-1.1,0.3-1.3c0.5-0.8,0.9-1.6,1.3-2.4c0.2-0.4,0.4-0.6,0.5-1
			c0,0,0-0.1-0.1-0.1c-0.1,0-0.2,0.1-0.3,0.1c0,0,0,0,0,0c0.1-0.2,0.2-0.4,0.2-0.6c0-0.1,0-0.1-0.1-0.1c-0.1,0-0.2,0.1-0.3,0.2
			c0,0,0,0,0,0c0.1-0.2,0.1-0.4,0.1-0.6c0-0.1-0.1-0.2-0.1-0.2c-0.2-0.1-0.3,0-0.5,0.1c-0.4,0.3-0.6,1-1,1.3c0,0-0.1,0-0.1,0
			c0,0,0-0.1,0-0.1c0-0.1,0-0.1,0-0.2c0.2-0.6,0.2-1.3,0-1.9c0-0.1,0-0.2-0.1-0.2c-0.1-0.1-0.1-0.1-0.2-0.1c-0.1,0-0.2,0.1-0.3,0.2
			c-0.1,0.1-0.1,0.2-0.1,0.3c0,0.1-0.1,0.1-0.2,0.2c0,0-0.1,0-0.1,0c-0.1-0.3,0-0.8-0.1-1.1c0-0.1-0.1-0.2-0.2-0.2
			c-0.1,0-0.2,0-0.2,0c-0.1,0.1-0.1,0.2-0.1,0.2c-0.1,0-0.1,0-0.2,0c-0.1,0-0.1-0.1-0.1-0.1c-0.2-0.2-0.3-0.3-0.5-0.3
			c-0.2,0-0.5,0-0.5,0.2c0,0.1-0.1,0.3-0.2,0.3c-0.1,0-0.2-0.1-0.3,0c-0.1,0-0.1,0.1-0.1,0.1c0,0.1,0,0.1,0,0.2
			c0,0.2,0.1,0.3,0.1,0.5c0,0,0,0.1,0,0.1c0,0-0.1,0.1-0.1,0.1c0,0-0.1,0-0.1-0.1c-0.1-0.1-0.3,0-0.3,0.1c0,0.1,0,0.2,0.1,0.4
			c0.1,0.2,0.1,0.4,0.2,0.6c0,0.1,0,0.1-0.1,0.1c-0.1,0-0.2,0.1-0.3,0.1c0,0-0.1,0-0.1,0c-0.3,0.2-0.2,0.6-0.1,0.8
			c0.1,0.2,0.2,0.3,0.3,0.5c0,0,0,0.1,0,0.1c0,0.1-0.2,0.1-0.2,0c-0.1,0-0.2-0.1-0.2,0c0,0.1,0,0.1,0.1,0.1c0.7,0.4,1.4,1,1.9,1.6
			c0.1,0.1,0,0.2-0.1,0.1c-0.1,0-0.2-0.1-0.3-0.2c-0.5-0.4-1-0.7-1.6-0.9c-0.2-0.1-0.4-0.2-0.6-0.2c-0.1,0-0.1,0.1-0.1,0.1l0.1,0.1
			c0,0,0,0.1,0,0.1c-0.2-0.1-0.5-0.1-0.7-0.1c-0.3,0-0.6,0.1-0.8,0.4c-0.1,0.2-0.1,0.4-0.1,0.5c0.1,0.2,0.2,0.3,0.3,0.4c0,0,0,0,0,0
			c-0.1,0-0.2,0-0.3,0.1c0,0,0,0,0,0.1c0.1,0.1,0.4,0.3,0.6,0.3c0,0,0,0,0,0.1c-0.1,0.1-0.2,0.1-0.3,0.2c0,0,0,0.1,0,0.1
			c0.3,0.1,0.6,0.2,0.9,0.2c-0.1,0-0.2,0-0.3,0c0,0-0.1,0-0.1,0.1c0,0,0,0,0.1,0c0.2,0,0.4,0,0.6,0c0.2,0,0.4,0,0.5,0.2
			c-0.3,0-0.5,0.1-0.8,0.2c-0.1,0.1-0.2,0.1-0.2,0.3c0,0.1,0.1,0.2,0.2,0.2c0.2,0.1,0.5,0.2,0.8,0.2c0.4,0,0.7,0,1.1-0.1
			c0.4-0.1,0.7-0.2,1.1-0.3c0.3-0.1,0.6-0.3,1-0.4c0.2,0,1.1-0.1,0.9,0.4c-0.1,0.1-0.2,0.3-0.3,0.4c0.1,0,0.1,0,0.2,0c0,0,0,0,0,0
			c0,0,0,0,0,0c0.1,0,0.1,0,0.2,0c0.1,0,0.1,0,0.2,0c0.2,0,0.4-0.1,0.7-0.1c0-0.1,0.1-0.2,0.2-0.2c0.4-0.3,0.7-0.5,1.1-0.8
			c0.2-0.2,0.5-0.4,0.7-0.6c0.4-0.3,0.9-0.3,1.4-0.3c0.5,0,1,0.2,1.5,0.4c0.8,0.4,1.5,0.9,2.3,1.3c0.3,0.2,0.7,0.3,1.1,0.2
			c0.1,0,0.1-0.1,0.1-0.2c0,0,0,0,0,0c0,0,0-0.1,0.1-0.1c0.1,0,0.3,0.1,0.5,0c0.2,0,0.4-0.1,0.5-0.3c0.1-0.1,0.2-0.4,0.1-0.5
			c0-0.1-0.1-0.2-0.2-0.3c0,0,0-0.1,0-0.1c0.1,0,0.2,0,0.3,0c0.2,0,0.5-0.1,0.6-0.3c0-0.1,0-0.2,0-0.3c-0.1-0.1-0.2-0.2-0.3-0.2
			c0.3,0,0.6-0.1,0.8-0.2c0.1,0,0.1-0.1,0-0.2c-0.1-0.1-0.1-0.1-0.2-0.2c0,0,0,0,0-0.1c0.2-0.1,0.4-0.3,0.4-0.5
			c0-0.3-0.1-0.5-0.3-0.7c-0.2-0.1-0.4-0.1-0.7,0c0,0-0.1,0-0.1,0c0-0.1,0-0.1-0.1-0.1c-0.1-0.1-0.1-0.1-0.2-0.1
			c-0.4-0.1-0.9,0-1.3,0.1c-0.4,0.1-0.8,0.4-1.2,0.5c0,0-0.1,0-0.1,0c-0.1,0-0.1-0.1-0.1-0.1c0-0.1,0.1-0.2,0.1-0.2
			c0.1-0.1,0.2-0.2,0.3-0.2c0.6-0.3,1.4-0.5,2.1-0.4c0.6,0.1,1.2,0,1.6-0.4c0,0,0.1-0.1,0-0.1c0,0,0-0.1-0.1-0.1
			c0,0-0.1-0.1-0.1-0.1c0,0,0-0.1,0-0.1c0,0,0.1,0,0.2,0c0.1,0,0.2,0,0.3-0.1c0.1,0,0.1-0.1,0.1-0.2c0-0.1-0.1-0.1-0.1-0.1
			c0.2-0.1,0.3-0.2,0.3-0.4c0-0.2-0.2-0.4-0.3-0.5c-0.2-0.1-0.4-0.1-0.6-0.1c-0.2,0-0.4,0.1-0.6,0.1c-0.1,0-0.2,0-0.2-0.1
			c0,0,0-0.1,0-0.1c0,0,0.1,0,0.1-0.1c0.3-0.1,0.6-0.1,0.8-0.2c0.2-0.1,0.4-0.2,0.6-0.3c0.2-0.1,0.5-0.3,0.6-0.5c0-0.1,0-0.1,0-0.2
			c0-0.1-0.1-0.2-0.2-0.2c-0.1,0-0.1,0-0.2-0.1c0,0,0,0,0,0C81.8,15.6,81.9,15.5,82,15.4"/>
	</g>
</g>
</svg>
