<?xml version="1.0" encoding="utf-8"?>
<!-- Generator: Adobe Illustrator 21.1.0, SVG Export Plug-In . SVG Version: 6.00 Build 0)  -->
<svg version="1.1" id="Layer_1" xmlns="http://www.w3.org/2000/svg" xmlns:xlink="http://www.w3.org/1999/xlink" x="0px" y="0px"
	 viewBox="0 0 98.9 75" style="enable-background:new 0 0 98.9 75;" xml:space="preserve">
<style type="text/css">
	.st0{fill:#ED1C24;}
	.st1{fill:#0D0D0D;}
</style>
<path id="XMLID_2016_" class="st0" d="M0.5,37.4c0-5.9,0-11.8,0-17.7c0-0.5,0.1-0.6,0.6-0.6c0.7,0,1.5,0.1,2.2,0.2
	c1.9,0.5,3,1.7,3.3,3.8c0.3,1.9,0.1,3.7,0.2,5.6c0,0.4-0.2,1,0.1,1.2c0.2,0.2,0.8-0.1,1.2-0.2c3.1-0.6,6.3-0.9,9.4-0.1
	c1.8,0.4,3.4,1.3,4.3,3c0.5,0.9,0.7,1.9,0.7,2.9c0,6.6,0,13.2,0,19.8c0,0.4-0.1,0.5-0.5,0.5c-1.7,0-3.3,0-5,0
	c-0.3,0-0.4-0.1-0.5-0.4c-0.3-1.6-0.4-3.3-0.4-5c0-5.3,0-10.7,0-16c0-0.9-0.5-1.4-1.3-1.8c-0.7-0.3-1.5-0.4-2.3-0.4
	c-1.8,0-3.6,0.1-5.4,0.6c-0.4,0.1-0.4,0.3-0.4,0.6c0,5.8,0,11.6,0,17.5c0,1.5-0.2,3-0.4,4.5c-0.1,0.3-0.2,0.4-0.5,0.4
	c-1.6,0-3.3,0-4.9,0c-0.4,0-0.5-0.1-0.5-0.5C0.5,49.3,0.5,43.4,0.5,37.4z"/>
<g id="XMLID_2006_">
	<path id="XMLID_2013_" class="st1" d="M81.4,37.3c-0.2-1.2-0.4-2.3-0.6-3.5c0-0.2,0.1-0.2,0.2-0.3c1.8-0.7,3.6-1.2,5.5-1.4
		c1.5-0.2,3-0.3,4.5-0.1c2.5,0.3,4.8,1.1,6.1,3.5c0.8,1.3,1.1,2.8,1.1,4.3c0,5.1,0,10.3,0,15.4c0,0.3-0.1,0.4-0.4,0.4
		c-1.7,0-3.4,0-5.1,0c-0.3,0-0.4,0-0.4-0.4c-0.1-0.8-0.2-1.7-0.3-2.6c-1.2,1.9-3,2.7-5,3.1c-1.9,0.3-3.7,0.2-5.5-0.5
		c-1.6-0.6-2.7-1.8-3.3-3.4c-0.8-2.1-0.9-4.3-0.3-6.5c0.9-2.9,3-4.5,5.9-5.2c1.9-0.5,3.8-0.5,5.7,0.2c0.9,0.3,1.6,0.8,2.3,1.4
		c0.2-0.1,0.1-0.2,0.1-0.3c0-0.8,0-1.6,0-2.3c0-1.7-0.7-2.6-2.4-2.9c-2.7-0.4-5.2-0.1-7.7,1C81.8,37.1,81.6,37.2,81.4,37.3z
		 M92.1,47.4c0-1.1,0-2.2,0-3.3c0-0.4-0.1-0.6-0.4-0.8c-1-0.7-2.1-1-3.3-1c-3.1,0.1-5.5,3.1-4.8,6.1c0.9,3.7,5.1,5.2,8.2,2.9
		c0.2-0.2,0.3-0.3,0.3-0.6C92,49.7,92.1,48.6,92.1,47.4z"/>
	<path id="XMLID_2010_" class="st1" d="M40.5,52.7c-2,2.7-4.7,3.4-7.8,3.1c-0.8-0.1-1.5-0.2-2.2-0.4c-1.8-0.6-3.1-1.7-3.7-3.5
		c-0.8-2.2-1-4.4-0.3-6.6c0.9-2.9,3-4.5,5.9-5.2c2-0.5,4-0.5,6,0.3c0.8,0.3,1.4,0.8,2.2,1.4c0-1.3,0.1-2.5-0.1-3.7
		c-0.2-1.1-1-1.6-2-1.9c-1.3-0.4-2.7-0.3-4.1-0.2c-1.6,0.2-3.1,0.6-4.5,1.3c-0.2-1.2-0.4-2.3-0.6-3.4c0-0.2,0.1-0.3,0.2-0.3
		c1.5-0.6,3.1-1.1,4.8-1.3c1.7-0.3,3.5-0.4,5.3-0.2c2.3,0.3,4.4,1,5.8,2.9c1,1.4,1.4,2.9,1.4,4.5c0,5.2,0,10.5,0,15.7
		c0,0.3-0.1,0.4-0.4,0.4c-1.7,0-3.4,0-5.1,0c-0.2,0-0.4,0-0.4-0.3C40.7,54.4,40.6,53.5,40.5,52.7z M40.4,47.4c0-1.1,0-2.2,0-3.4
		c0-0.3-0.1-0.4-0.3-0.6c-1.7-1.3-3.5-1.5-5.4-0.6s-2.9,2.6-2.9,4.8c0.1,2,1.1,3.5,3,4.4s3.7,0.6,5.4-0.6c0.2-0.2,0.3-0.3,0.3-0.6
		C40.4,49.7,40.4,48.6,40.4,47.4z"/>
	<path id="XMLID_2009_" class="st1" d="M65,36.8c-2.3-1.1-4.6-1.3-7-1c-0.6,0.1-1.2,0.3-1.7,0.6c-1.1,0.7-1.2,2.2-0.1,3
		c0.5,0.4,1,0.6,1.5,0.7c1.7,0.5,3.4,0.9,5,1.7c2.1,0.9,3.5,2.4,3.9,4.7c0.4,2.2,0.3,4.4-1.2,6.3c-0.9,1.2-2.2,2-3.7,2.4
		c-3.7,1-7.3,1-10.9-0.3c-0.9-0.3-0.9-0.4-0.7-1.3c0.2-0.9,0.4-1.7,0.5-2.6c0.1-0.3,0.2-0.3,0.4-0.2c1.3,0.6,2.6,1.1,4,1.3
		c1.7,0.2,3.3,0.1,4.8-0.7c1.4-0.8,1.7-2.6,0.5-3.7c-0.5-0.5-1.2-0.8-1.8-1.1C57,46,55.4,45.7,54,44.9c-2-1.1-3.1-2.7-3.4-5
		c-0.2-1.4-0.1-2.8,0.5-4.1c0.8-1.8,2.4-2.9,4.2-3.4c3.3-0.9,6.6-0.7,9.9,0.6c0.3,0.1,0.4,0.3,0.3,0.6C65.4,34.7,65.2,35.7,65,36.8z
		"/>
	<path id="XMLID_2008_" class="st1" d="M69.3,43.9c0-3.7,0-7.4,0-11.1c0-0.3,0.1-0.5,0.4-0.5c1.8,0,3.6,0,5.4,0
		c0.3,0,0.4,0.1,0.4,0.4c0,7.5,0,15,0,22.4c0,0.3-0.1,0.4-0.4,0.4c-1.8,0-3.6,0-5.4,0c-0.4,0-0.5-0.1-0.5-0.4
		C69.3,51.4,69.3,47.7,69.3,43.9z"/>
	<path id="XMLID_2007_" class="st1" d="M76.2,22.8c-0.2,2-1.9,3.5-4,3.4s-3.6-1.7-3.6-3.6c0-1.7,1.3-3.1,3.2-3.4
		c1.9-0.3,3.8,0.9,4.3,2.7C76.2,22.1,76.2,22.5,76.2,22.8z"/>
</g>
</svg>
